<svg id="SvgjsSvg1160" width="1079.0124969482422" height="677" xmlns="http://www.w3.org/2000/svg" version="1.1" xmlns:xlink="http://www.w3.org/1999/xlink" xmlns:svgjs="http://svgjs.com/svgjs"><defs id="SvgjsDefs1161"><marker id="SvgjsMarker1207" markerWidth="16" markerHeight="12" refX="16" refY="6" viewBox="0 0 16 12" orient="auto" markerUnits="userSpaceOnUse"><path id="SvgjsPath1208" d="M0,2 L14,6 L0,11 L0,2" fill="#323232" stroke="#323232" stroke-width="2"></path></marker><marker id="SvgjsMarker1211" markerWidth="16" markerHeight="12" refX="16" refY="6" viewBox="0 0 16 12" orient="auto" markerUnits="userSpaceOnUse"><path id="SvgjsPath1212" d="M0,2 L14,6 L0,11 L0,2" fill="#323232" stroke="#323232" stroke-width="2"></path></marker><marker id="SvgjsMarker1215" markerWidth="16" markerHeight="12" refX="0" refY="6" viewBox="0 0 16 12" orient="auto" markerUnits="userSpaceOnUse"><path id="SvgjsPath1216" d="M15,1.5 L2,6 L15,10.5" fill="#323232" stroke="#323232" stroke-width="2"></path></marker><marker id="SvgjsMarker1324" markerWidth="16" markerHeight="12" refX="16" refY="6" viewBox="0 0 16 12" orient="auto" markerUnits="userSpaceOnUse"><path id="SvgjsPath1325" d="M0,2 L14,6 L0,11 L0,2" fill="#323232" stroke="#323232" stroke-width="2"></path></marker></defs><g id="SvgjsG1162" transform="translate(301.0124969482422,40.99999237060547)"><path id="SvgjsPath1163" d="M 0 0L 100 0L 100 70L 0 70Z" stroke="#323232" stroke-width="2" fill-opacity="1" fill="#ffffff"></path><g id="SvgjsG1164"><text id="SvgjsText1165" font-family="微软雅黑" text-anchor="middle" font-size="13px" width="50" fill="#323232" font-weight="400" align="middle" anchor="middle" family="微软雅黑" size="13px" weight="400" font-style="" y="25.05" transform="rotate(0)"><tspan id="SvgjsTspan1166" dy="16" x="50"><tspan id="SvgjsTspan1167" style="text-decoration:;">Servlet1</tspan></tspan></text></g></g><g id="SvgjsG1168" transform="translate(301.0124969482422,136.99999237060547)"><path id="SvgjsPath1169" d="M 0 0L 100 0L 100 70L 0 70Z" stroke="#323232" stroke-width="2" fill-opacity="1" fill="#ffffff"></path><g id="SvgjsG1170"><text id="SvgjsText1171" font-family="微软雅黑" text-anchor="middle" font-size="13px" width="50" fill="#323232" font-weight="400" align="middle" anchor="middle" family="微软雅黑" size="13px" weight="400" font-style="" y="25.05" transform="rotate(0)"><tspan id="SvgjsTspan1172" dy="16" x="50"><tspan id="SvgjsTspan1173" style="text-decoration:;">Servlet2</tspan></tspan></text></g></g><g id="SvgjsG1174" transform="translate(301.0124969482422,337.99999237060547)"><path id="SvgjsPath1175" d="M 0 0L 100 0L 100 70L 0 70Z" stroke="#323232" stroke-width="2" fill-opacity="1" fill="#ffffff"></path><g id="SvgjsG1176"><text id="SvgjsText1177" font-family="微软雅黑" text-anchor="middle" font-size="13px" width="53" fill="#323232" font-weight="400" align="middle" anchor="middle" family="微软雅黑" size="13px" weight="400" font-style="" y="25.05" transform="rotate(0)"><tspan id="SvgjsTspan1178" dy="16" x="50"><tspan id="SvgjsTspan1179" style="text-decoration:;">ServletN</tspan></tspan></text></g></g><g id="SvgjsG1180"><path id="SvgjsPath1181" d="M351.0124969482422 206.99999237060547L351.0124969482422 272.49999237060547L351.0124969482422 272.49999237060547L351.0124969482422 337.99999237060547" stroke-dasharray="3,3" stroke="#323232" stroke-width="2" fill="none"></path></g><g id="SvgjsG1182" transform="matrix(6.123233995736766e-17,1,-1,6.123233995736766e-17,424.01251220703125,434)"><path id="SvgjsPath1183" d="M 0 141Q 2.4999999999999973 141 2.4999999999999973 132L 2.4999999999999973 79.5Q 2.4999999999999973 70.5 22 70.5Q 2.4999999999999973 70.5 2.4999999999999973 61.5L 2.4999999999999973 9Q 2.4999999999999973 0 0 0" stroke="#323232" stroke-width="2" fill="none"></path><path id="SvgjsPath1184" d="M 0 0L 24.99999999999997 0L 24.99999999999997 141L 0 141Z" stroke="none" fill="none"></path><g id="SvgjsG1185"><text id="SvgjsText1186" font-family="微软雅黑" text-anchor="start" font-size="13px" width="0" fill="#323232" font-weight="400" align="middle" anchor="start" family="微软雅黑" size="13px" weight="400" font-style="" y="60.55" transform="rotate(0)"></text></g></g><g id="SvgjsG1187" transform="translate(273.5124969482422,464)"><path id="SvgjsPath1188" d="M 0 0L 160 0L 160 40L 0 40Z" stroke="none" fill="none"></path><g id="SvgjsG1189"><text id="SvgjsText1190" font-family="微软雅黑" text-anchor="middle" font-size="13px" width="82" fill="#323232" font-weight="400" align="middle" anchor="middle" family="微软雅黑" size="13px" weight="400" font-style="" y="10.05" transform="rotate(0)"><tspan id="SvgjsTspan1191" dy="16" x="80"><tspan id="SvgjsTspan1192" style="text-decoration:;">Servlet访问层</tspan></tspan></text></g></g><g id="SvgjsG1193" transform="translate(36.01249694824219,196.24999332427979)"><path id="SvgjsPath1194" d="M 0 19.8L 60 19.8L 60 0L 90 30L 60 60L 60 40.2L 0 40.2L 0 19.8Z" stroke="#323232" stroke-width="2" fill-opacity="1" fill="#ffffff"></path><g id="SvgjsG1195"><text id="SvgjsText1196" font-family="微软雅黑" text-anchor="middle" font-size="13px" width="54" fill="#323232" font-weight="400" align="middle" anchor="middle" family="微软雅黑" size="13px" weight="400" font-style="" y="20.05" transform="rotate(0)"><tspan id="SvgjsTspan1197" dy="16" x="45"><tspan id="SvgjsTspan1198" style="text-decoration:;">Http请求</tspan></tspan></text></g></g><g id="SvgjsG1199" transform="translate(207.0124969482422,196.9999942779541)"><path id="SvgjsPath1200" d="M 0 0L 81 0L 81 40L 0 40Z" stroke="none" fill="none"></path><g id="SvgjsG1201"><text id="SvgjsText1202" font-family="微软雅黑" text-anchor="middle" font-size="13px" width="52" fill="#323232" font-weight="400" align="middle" anchor="middle" family="微软雅黑" size="13px" weight="400" font-style="" y="10.05" transform="rotate(0)"><tspan id="SvgjsTspan1203" dy="16" x="40.5"><tspan id="SvgjsTspan1204" style="text-decoration:;">选择分发</tspan></tspan></text></g></g><g id="SvgjsG1205"><path id="SvgjsPath1206" d="M247.5124969482422 196.9999942779541L247.5124969482422 75.99999237060547L301.0124969482422 75.99999237060547" stroke-dasharray="3,3" stroke="#323232" stroke-width="2" fill="none" marker-end="url(#SvgjsMarker1207)"></path></g><g id="SvgjsG1209"><path id="SvgjsPath1210" d="M247.5124969482422 236.9999942779541L247.5124969482422 372.99999237060547L301.0124969482422 372.99999237060547" stroke-dasharray="3,3" stroke="#323232" stroke-width="2" fill="none" marker-end="url(#SvgjsMarker1211)"></path></g><g id="SvgjsG1213"><path id="SvgjsPath1214" d="M301.0124969482422 171.99999237060547L247.5124969482422 171.99999237060547L247.5124969482422 196.9999942779541" stroke-dasharray="3,3" stroke="#323232" stroke-width="2" fill="none" marker-start="url(#SvgjsMarker1215)"></path></g><g id="SvgjsG1217" transform="translate(521.0124969482422,40.99999237060547)"><path id="SvgjsPath1218" d="M 0 0L 100 0L 100 70L 0 70Z" stroke="#323232" stroke-width="2" fill-opacity="1" fill="#ffffff"></path><g id="SvgjsG1219"><text id="SvgjsText1220" font-family="微软雅黑" text-anchor="middle" font-size="13px" width="52" fill="#323232" font-weight="400" align="middle" anchor="middle" family="微软雅黑" size="13px" weight="400" font-style="" y="25.05" transform="rotate(0)"><tspan id="SvgjsTspan1221" dy="16" x="50"><tspan id="SvgjsTspan1222" style="text-decoration:;">Service1</tspan></tspan></text></g></g><g id="SvgjsG1223" transform="translate(520.0124969482422,136.99999237060547)"><path id="SvgjsPath1224" d="M 0 0L 100 0L 100 70L 0 70Z" stroke="#323232" stroke-width="2" fill-opacity="1" fill="#ffffff"></path><g id="SvgjsG1225"><text id="SvgjsText1226" font-family="微软雅黑" text-anchor="middle" font-size="13px" width="52" fill="#323232" font-weight="400" align="middle" anchor="middle" family="微软雅黑" size="13px" weight="400" font-style="" y="25.05" transform="rotate(0)"><tspan id="SvgjsTspan1227" dy="16" x="50"><tspan id="SvgjsTspan1228" style="text-decoration:;">Service2</tspan></tspan></text></g></g><g id="SvgjsG1229" transform="translate(521.0124969482422,337.99999237060547)"><path id="SvgjsPath1230" d="M 0 0L 100 0L 100 70L 0 70Z" stroke="#323232" stroke-width="2" fill-opacity="1" fill="#ffffff"></path><g id="SvgjsG1231"><text id="SvgjsText1232" font-family="微软雅黑" text-anchor="middle" font-size="13px" width="54" fill="#323232" font-weight="400" align="middle" anchor="middle" family="微软雅黑" size="13px" weight="400" font-style="" y="25.05" transform="rotate(0)"><tspan id="SvgjsTspan1233" dy="16" x="50"><tspan id="SvgjsTspan1234" style="text-decoration:;">ServiceN</tspan></tspan></text></g></g><g id="SvgjsG1235"><path id="SvgjsPath1236" d="M570.0124969482422 206.99999237060547L570.0124969482422 272.49999237060547L571.0124969482422 272.49999237060547L571.0124969482422 337.99999237060547" stroke-dasharray="3,3" stroke="#323232" stroke-width="2" fill="none"></path></g><g id="SvgjsG1237" transform="translate(487.5124969482422,464)"><path id="SvgjsPath1238" d="M 0 0L 160 0L 160 40L 0 40Z" stroke="none" fill="none"></path><g id="SvgjsG1239"><text id="SvgjsText1240" font-family="微软雅黑" text-anchor="middle" font-size="13px" width="65" fill="#323232" font-weight="400" align="middle" anchor="middle" family="微软雅黑" size="13px" weight="400" font-style="" y="10.05" transform="rotate(0)"><tspan id="SvgjsTspan1241" dy="16" x="80"><tspan id="SvgjsTspan1242" style="text-decoration:;">业务调用层</tspan></tspan></text></g></g><g id="SvgjsG1243" transform="matrix(6.123233995736766e-17,1,-1,6.123233995736766e-17,639.0125122070312,431.5)"><path id="SvgjsPath1244" d="M 0 141Q 2.4999999999999973 141 2.4999999999999973 132L 2.4999999999999973 79.5Q 2.4999999999999973 70.5 22 70.5Q 2.4999999999999973 70.5 2.4999999999999973 61.5L 2.4999999999999973 9Q 2.4999999999999973 0 0 0" stroke="#323232" stroke-width="2" fill="none"></path><path id="SvgjsPath1245" d="M 0 0L 24.99999999999997 0L 24.99999999999997 141L 0 141Z" stroke="none" fill="none"></path><g id="SvgjsG1246"><text id="SvgjsText1247" font-family="微软雅黑" text-anchor="start" font-size="13px" width="0" fill="#323232" font-weight="400" align="middle" anchor="start" family="微软雅黑" size="13px" weight="400" font-style="" y="60.55" transform="rotate(0)"></text></g></g><g id="SvgjsG1248" transform="translate(416.0124969482422,186.9999942779541)"><path id="SvgjsPath1249" d="M 0 19.8L 60 19.8L 60 0L 90 30L 60 60L 60 40.2L 0 40.2L 0 19.8Z" stroke="#323232" stroke-width="2" fill-opacity="1" fill="#ffffff"></path><g id="SvgjsG1250"><text id="SvgjsText1251" font-family="微软雅黑" text-anchor="middle" font-size="13px" width="52" fill="#323232" font-weight="400" align="middle" anchor="middle" family="微软雅黑" size="13px" weight="400" font-style="" y="20.05" transform="rotate(0)"><tspan id="SvgjsTspan1252" dy="16" x="45"><tspan id="SvgjsTspan1253" style="text-decoration:;">业务调用</tspan></tspan></text></g></g><g id="SvgjsG1254"><path id="SvgjsPath1255" d="M153.0124969482422 73.99999237060547L153.0124969482422 226.49999237060547L153.0124969482422 226.49999237060547L153.0124969482422 378.99999237060547" stroke="#323232" stroke-width="2" fill="none"></path></g><g id="SvgjsG1256" transform="translate(77.01249694824219,24.99999237060547)"><path id="SvgjsPath1257" d="M 0 0L 160 0L 160 40L 0 40Z" stroke="none" fill="none"></path><g id="SvgjsG1258"><text id="SvgjsText1259" font-family="微软雅黑" text-anchor="middle" font-size="13px" width="39" fill="#323232" font-weight="400" align="middle" anchor="middle" family="微软雅黑" size="13px" weight="400" font-style="" y="10.05" transform="rotate(0)"><tspan id="SvgjsTspan1260" dy="16" x="80"><tspan id="SvgjsTspan1261" style="text-decoration:;">拦截器</tspan></tspan></text></g></g><g id="SvgjsG1262" transform="translate(115.01249694824219,78.99999237060547)"><path id="SvgjsPath1263" d="M 99 0Q 90 0 90 9L 90 138.25000095367432Q 90 147.25000095367432 77 147.25000095367432Q 90 147.25000095367432 90 156.25000095367432L 90 285.50000190734863Q 90 294.50000190734863 99 294.50000190734863" stroke="#323232" stroke-width="2" fill="none"></path><path id="SvgjsPath1264" d="M 0 0L 99 0L 99 294.50000190734863L 0 294.50000190734863Z" stroke="none" fill="none"></path><g id="SvgjsG1265"><text id="SvgjsText1266" font-family="微软雅黑" text-anchor="end" font-size="13px" width="0" fill="#323232" font-weight="400" align="middle" anchor="end" family="微软雅黑" size="13px" weight="400" font-style="" y="137.30000095367433" transform="rotate(0)"></text></g></g><g id="SvgjsG1267" transform="translate(720.5124969482422,38.24999141693115)"><path id="SvgjsPath1268" d="M 0 0L 100 0L 100 70L 0 70Z" stroke="#323232" stroke-width="2" fill-opacity="1" fill="#ffffff"></path><g id="SvgjsG1269"><text id="SvgjsText1270" font-family="微软雅黑" text-anchor="middle" font-size="13px" width="33" fill="#323232" font-weight="400" align="middle" anchor="middle" family="微软雅黑" size="13px" weight="400" font-style="" y="25.05" transform="rotate(0)"><tspan id="SvgjsTspan1271" dy="16" x="50"><tspan id="SvgjsTspan1272" style="text-decoration:;">Dao1</tspan></tspan></text></g></g><g id="SvgjsG1273" transform="translate(724.0124969482422,136.99999237060547)"><path id="SvgjsPath1274" d="M 0 0L 100 0L 100 70L 0 70Z" stroke="#323232" stroke-width="2" fill-opacity="1" fill="#ffffff"></path><g id="SvgjsG1275"><text id="SvgjsText1276" font-family="微软雅黑" text-anchor="middle" font-size="13px" width="33" fill="#323232" font-weight="400" align="middle" anchor="middle" family="微软雅黑" size="13px" weight="400" font-style="" y="25.05" transform="rotate(0)"><tspan id="SvgjsTspan1277" dy="16" x="50"><tspan id="SvgjsTspan1278" style="text-decoration:;">Dao2</tspan></tspan></text></g></g><g id="SvgjsG1279" transform="translate(720.5124969482422,335.24999141693115)"><path id="SvgjsPath1280" d="M 0 0L 100 0L 100 70L 0 70Z" stroke="#323232" stroke-width="2" fill-opacity="1" fill="#ffffff"></path><g id="SvgjsG1281"><text id="SvgjsText1282" font-family="微软雅黑" text-anchor="middle" font-size="13px" width="36" fill="#323232" font-weight="400" align="middle" anchor="middle" family="微软雅黑" size="13px" weight="400" font-style="" y="25.05" transform="rotate(0)"><tspan id="SvgjsTspan1283" dy="16" x="50"><tspan id="SvgjsTspan1284" style="text-decoration:;">DaoN</tspan></tspan></text></g></g><g id="SvgjsG1285"><path id="SvgjsPath1286" d="M774.0124969482422 206.99999237060547L774.0124969482422 271.1249918937683L770.5124969482422 271.1249918937683L770.5124969482422 335.24999141693115" stroke-dasharray="3,3" stroke="#323232" stroke-width="2" fill="none"></path></g><g id="SvgjsG1287" transform="translate(688.0124969482422,461.2499990463257)"><path id="SvgjsPath1288" d="M 0 0L 160 0L 160 40L 0 40Z" stroke="none" fill="none"></path><g id="SvgjsG1289"><text id="SvgjsText1290" font-family="微软雅黑" text-anchor="middle" font-size="13px" width="65" fill="#323232" font-weight="400" align="middle" anchor="middle" family="微软雅黑" size="13px" weight="400" font-style="" y="10.05" transform="rotate(0)"><tspan id="SvgjsTspan1291" dy="16" x="80"><tspan id="SvgjsTspan1292" style="text-decoration:;">数据处理层</tspan></tspan></text></g></g><g id="SvgjsG1293" transform="matrix(6.123233995736766e-17,1,-1,6.123233995736766e-17,838.5125122070312,428.75)"><path id="SvgjsPath1294" d="M 0 141Q 2.4999999999999973 141 2.4999999999999973 132L 2.4999999999999973 79.5Q 2.4999999999999973 70.5 22 70.5Q 2.4999999999999973 70.5 2.4999999999999973 61.5L 2.4999999999999973 9Q 2.4999999999999973 0 0 0" stroke="#323232" stroke-width="2" fill="none"></path><path id="SvgjsPath1295" d="M 0 0L 24.99999999999997 0L 24.99999999999997 141L 0 141Z" stroke="none" fill="none"></path><g id="SvgjsG1296"><text id="SvgjsText1297" font-family="微软雅黑" text-anchor="start" font-size="13px" width="0" fill="#323232" font-weight="400" align="middle" anchor="start" family="微软雅黑" size="13px" weight="400" font-style="" y="60.55" transform="rotate(0)"></text></g></g><g id="SvgjsG1298" transform="translate(626.0124969482422,189.9999942779541)"><path id="SvgjsPath1299" d="M 0 19.8L 60 19.8L 60 0L 90 30L 60 60L 60 40.2L 0 40.2L 0 19.8Z" stroke="#323232" stroke-width="2" fill-opacity="1" fill="#ffffff"></path><g id="SvgjsG1300"><text id="SvgjsText1301" font-family="微软雅黑" text-anchor="middle" font-size="13px" width="52" fill="#323232" font-weight="400" align="middle" anchor="middle" family="微软雅黑" size="13px" weight="400" font-style="" y="20.05" transform="rotate(0)"><tspan id="SvgjsTspan1302" dy="16" x="45"><tspan id="SvgjsTspan1303" style="text-decoration:;">数据调用</tspan></tspan></text></g></g><g id="SvgjsG1304" transform="translate(832.0124969482422,186.9999942779541)"><path id="SvgjsPath1305" d="M 0 19.8L 60 19.8L 60 0L 90 30L 60 60L 60 40.2L 0 40.2L 0 19.8Z" stroke="#323232" stroke-width="2" fill-opacity="1" fill="#ffffff"></path><g id="SvgjsG1306"><text id="SvgjsText1307" font-family="微软雅黑" text-anchor="middle" font-size="13px" width="0" fill="#323232" font-weight="400" align="middle" anchor="middle" family="微软雅黑" size="13px" weight="400" font-style="" y="20.05" transform="rotate(0)"></text></g></g><g id="SvgjsG1308" transform="translate(894.0124969482422,196.9999942779541)"><path id="SvgjsPath1309" d="M 0 0L 160 0L 160 40L 0 40Z" stroke="none" fill="none"></path><g id="SvgjsG1310"><text id="SvgjsText1311" font-family="微软雅黑" text-anchor="middle" font-size="13px" width="76" fill="#323232" font-weight="400" align="middle" anchor="middle" family="微软雅黑" size="13px" weight="400" font-style="" y="10.05" transform="rotate(0)"><tspan id="SvgjsTspan1312" dy="16" x="80"><tspan id="SvgjsTspan1313" style="text-decoration:;">Mysql数据库</tspan></tspan></text></g></g><g id="SvgjsG1314" transform="translate(161.0124969482422,582)"><path id="SvgjsPath1315" d="M 0 0L 100 0L 100 70L 0 70Z" stroke="#323232" stroke-width="2" fill-opacity="1" fill="#ffffff"></path><g id="SvgjsG1316"><text id="SvgjsText1317" font-family="微软雅黑" text-anchor="middle" font-size="13px" width="70" fill="#323232" font-weight="400" align="middle" anchor="middle" family="微软雅黑" size="13px" weight="400" font-style="" y="17.05" transform="rotate(0)"><tspan id="SvgjsTspan1318" dy="16" x="50"><tspan id="SvgjsTspan1319" style="text-decoration:;">jsp渲染生成</tspan></tspan><tspan id="SvgjsTspan1320" dy="16" x="50"><tspan id="SvgjsTspan1321" style="text-decoration:;">视图</tspan></tspan></text></g></g><g id="SvgjsG1322"><path id="SvgjsPath1323" d="M356.0124969482422 519L356.0124969482422 617L261.0124969482422 617" stroke="#323232" stroke-width="2" fill="none" marker-end="url(#SvgjsMarker1324)"></path></g><g id="SvgjsG1326" transform="translate(336.0124969482422,551)"><path id="SvgjsPath1327" d="M 0 0L 160 0L 160 40L 0 40Z" stroke="none" fill="none"></path><g id="SvgjsG1328"><text id="SvgjsText1329" font-family="微软雅黑" text-anchor="middle" font-size="13px" width="91" fill="#323232" font-weight="400" align="middle" anchor="middle" family="微软雅黑" size="13px" weight="400" font-style="" y="10.05" transform="rotate(0)"><tspan id="SvgjsTspan1330" dy="16" x="80"><tspan id="SvgjsTspan1331" style="text-decoration:;">完成业务调用后</tspan></tspan></text></g></g><g id="SvgjsG1332" transform="translate(25.012496948242188,587)"><path id="SvgjsPath1333" d="M 0 30L 30 0L 30 19.8L 90 19.8L 90 40.2L 30 40.2L 30 60L 0 30Z" stroke="#323232" stroke-width="2" fill-opacity="1" fill="#ffffff"></path><g id="SvgjsG1334"><text id="SvgjsText1335" font-family="微软雅黑" text-anchor="middle" font-size="13px" width="52" fill="#323232" font-weight="400" align="middle" anchor="middle" family="微软雅黑" size="13px" weight="400" font-style="" y="20.05" transform="rotate(0)"><tspan id="SvgjsTspan1336" dy="16" x="45"><tspan id="SvgjsTspan1337" style="text-decoration:;">返回视图</tspan></tspan></text></g></g></svg>